<svg xmlns="http://www.w3.org/2000/svg" xmlns:xlink="http://www.w3.org/1999/xlink" version="1.1" id="Layer_1" x="0px" y="0px" width="100px" height="100px" viewBox="0 0 100 100" enable-background="new 0 0 100 100" xml:space="preserve">
<path fill="#000000" d="M52.069,14.322l-1.947,1.167v3.244l-5.059-3.633l-4.411-1.557l1.557-1.168L41.82,9.522h-9.471l-3.502,1.946  l-2.465-1.946l-1.297,2.076l-5.449,1.946l1.816,2.335l-7.395,4.541l-3.633,4.541v3.893l-2.206,4.411l1.816,4.8l1.816,1.427  l0.26,2.596l4.541,4.541l5.838-0.779l2.725,0.779l3.503-2.336l4.93,0.13l0.13,2.205l7.005,2.465l-0.129,7.784l4.281,5.191  l0.13,5.318l-2.076,4.67l6.617,14.271l0.908,4.152h4.93l6.356-3.115l6.357-8.562l-1.427-3.242l2.465-2.855l4.93-2.205L71.919,59.6  l7.395-9.197h3.893l3.243-11.301l-5.968,2.205l-8.562-7.265L63.615,15.1l-4.021,1.687L52.069,14.322z"/>
</svg>