<svg xmlns="http://www.w3.org/2000/svg" xmlns:xlink="http://www.w3.org/1999/xlink" version="1.1" id="Layer_1" x="0px" y="0px" width="100px" height="100px" viewBox="0 0 100 100" enable-background="new 0 0 100 100" xml:space="preserve">
<polygon points="51.247,44.781 5.978,84.722 0.021,77.966 45.292,38.017 45.288,38.029 37.628,29.335 56.683,12.52 78.964,37.208   59.91,54.029 51.276,44.811 "/>
<path d="M55.947,4.711c1.63,1.835,1.742,4.376,0.254,5.673L36.296,27.945c-1.473,1.315-3.973,0.892-5.598-0.965l0,0  c-1.622-1.829-1.751-4.372-0.262-5.674L50.348,3.741C51.81,2.435,54.327,2.868,55.947,4.711L55.947,4.711z"/>
<path d="M86.53,39.297c1.635,1.838,1.742,4.378,0.256,5.676L66.877,62.53c-1.471,1.315-3.972,0.892-5.597-0.961l0,0  c-1.622-1.832-1.748-4.373-0.26-5.677l19.911-17.564C82.391,37.024,84.912,37.455,86.53,39.297L86.53,39.297z"/>
<path d="M41.689,85.898l0.004-4.848h51.07v4.848h3.677c1.965-0.006,3.56,1.981,3.556,4.438l0,0c0.014,2.457-1.591,4.44-3.563,4.419  H38.03c-1.971,0.01-3.571-1.962-3.56-4.425l0,0c0-2.45,1.589-4.438,3.56-4.432H41.689"/>
</svg>