<svg xmlns="http://www.w3.org/2000/svg" xmlns:xlink="http://www.w3.org/1999/xlink" version="1.1" id="Layer_1" x="0px" y="0px" width="100px" height="100px" viewBox="0 0 100 100" enable-background="new 0 0 100 100" xml:space="preserve">
<circle fill="#000000" cx="50.344" cy="26.292" r="4.881"/>
<g>
	<path fill="#000000" d="M61.76,38.609v14.894c0.014,2.931-3.814,2.931-3.814,0V38.919h-1.202L56.73,78.495   c0,1.507-1.222,2.733-2.733,2.733c-1.513,0-2.733-1.229-2.733-2.733l0.006-22.959h-1.221v22.959c0,1.507-1.226,2.733-2.739,2.733   c-1.507,0-2.733-1.229-2.733-2.733V38.896c-3.128-0.282-4.375-2.432-5.177-5.659l-2.97-11.826   c-0.702-2.827,3.031-3.754,3.733-0.927c0,0,2.429,9.63,2.434,9.666c0.078,0.556,0.854,2.04,2.704,2.04h10.766   C59.857,32.19,61.76,35.366,61.76,38.609z"/>
</g>
<circle fill="#000000" cx="22.823" cy="27.695" r="4.628"/>
<path fill="#000000" d="M17.352,77.189c0,1.432,1.163,2.595,2.594,2.595c1.435,0,2.596-1.163,2.596-2.595l0.001-21.766H23.7  l-0.008,21.766c0,1.432,1.162,2.595,2.594,2.595c1.433,0,2.594-1.163,2.594-2.595l0.011-37.522h1.138v13.828  c0,2.78,3.628,2.78,3.621,0V39.373c0-3.073-1.807-6.084-5.402-6.084l-10.372-0.005c-3.276,0-5.329,2.671-5.329,6.005v14.207  c0,2.762,3.649,2.762,3.649,0V39.667h1.161L17.352,77.189z"/>
<circle fill="#000000" cx="79.887" cy="27.695" r="4.628"/>
<path fill="#000000" d="M74.414,77.189c0,1.432,1.163,2.595,2.595,2.595c1.435,0,2.597-1.163,2.597-2.595l0.002-21.766h1.154  l-0.007,21.766c0,1.432,1.161,2.595,2.595,2.595c1.435,0,2.594-1.163,2.594-2.595l0.012-37.522h1.139v13.828  c0,2.78,3.631,2.78,3.621,0V39.373c0-3.073-1.806-6.084-5.4-6.084l-10.371-0.005c-3.277,0-5.33,2.671-5.33,6.005v14.207  c0,2.762,3.648,2.762,3.648,0V39.667h1.16L74.414,77.189z"/>
</svg>